
<svg width="144px" height="44px" viewBox="0 0 144 44" version="1.1" xmlns="http://www.w3.org/2000/svg" xmlns:xlink="http://www.w3.org/1999/xlink">
    <!-- Generator: Sketch 46.2 (44496) - http://www.bohemiancoding.com/sketch -->
    <desc>Created with Sketch.</desc>
    <defs>
        <path d="M144.18948,53.6698013 C144.533909,53.0878098 144.949068,52.5534847 145.348082,52.009165 C146.309098,50.7129462 147.290103,49.4313348 148.204222,48.1012882 C148.409495,47.7876124 148.637064,47.4816248 148.781601,47.1333525 C148.848488,46.9965038 148.766993,46.8504293 148.73009,46.7166558 C148.266496,45.527302 147.706031,44.37562 147.274727,43.1739651 C147.137878,42.8203111 147.130959,42.4366734 147.144798,42.0622614 C147.18862,41.0597292 147.259351,40.0587345 147.338539,39.0569711 C147.453092,40.1302342 147.509215,41.2073413 147.626844,42.2806043 C148.013557,41.5971295 148.177314,40.8129402 148.281872,40.0418207 C148.427178,38.8962892 148.381818,37.6807957 147.851337,36.6329035 C147.293948,35.4804527 146.162255,34.6509033 144.914471,34.4010391 C144.341705,34.2980181 143.75587,34.3472222 143.184642,34.4264099 C141.778482,34.6032369 140.360022,34.5386566 138.947713,34.5132858 C137.820633,34.5632586 136.676639,34.5571081 135.575699,34.2841795 C134.807654,34.0950515 134.061137,33.7483168 133.499134,33.1809327 C132.968653,32.6719785 132.625763,32.0138745 132.200609,31.423426 C131.796982,30.8406657 131.340307,30.2986525 130.907466,29.737419 C130.368528,29.025498 129.921078,28.2489968 129.524371,27.4502 C129.918003,27.2626096 130.396205,27.1472877 130.651451,26.7621123 C130.791375,26.5737531 130.715262,26.2846794 130.493075,26.1993412 C129.921078,25.9525522 129.276044,25.9925304 128.670988,26.0571107 C128.491086,25.928719 128.306571,25.8080153 128.115905,25.6965374 C128.13897,25.6527151 128.183561,25.5612263 128.207394,25.517404 C128.907014,25.8372302 129.775773,25.9510145 130.453097,25.5127911 C131.173475,25.0945568 131.550962,24.2519376 131.506371,23.4354581 C132.10297,23.9228856 132.965578,24.1220082 133.672117,23.7552844 C134.403259,23.4231571 134.690795,22.6005271 134.805348,21.8640042 C135.432699,21.7163921 136.069277,21.5026621 136.555935,21.0644386 C137.037981,20.6315968 137.440839,20.1172609 137.810638,19.5867799 C138.045126,19.2262065 138.32113,18.8648644 138.372641,18.4227969 C137.975164,18.3020932 137.694547,18.6588225 137.482355,18.9355952 C137.1164,19.4622321 136.679714,19.9373586 136.183061,20.3417543 C136.048519,19.3891949 136.432925,18.3559101 137.241716,17.809284 C137.456215,17.6585967 137.754515,17.4902266 137.733757,17.1888519 C137.735294,17.0043367 137.521564,17.0204818 137.40778,17.0919814 C136.655881,17.4771568 135.987782,18.0883632 135.662574,18.8794718 C135.414248,19.4683827 135.408866,20.1257178 135.544177,20.7423059 C135.306614,20.8291818 135.066744,20.9099072 134.823031,20.9767939 C134.806117,20.6684999 134.773058,20.3625123 134.718472,20.0580623 C134.665424,20.030385 134.55779,19.9750305 134.503973,19.9465844 C134.405565,20.0342291 134.31177,20.1257178 134.218743,20.2202818 C134.260259,20.511662 134.295625,20.803811 134.309463,21.099804 C133.250039,21.3865713 132.150636,21.4934363 131.097362,21.8048056 C130.945906,21.5833874 130.901315,21.1467016 130.568419,21.1682284 C130.236292,21.3781143 130.460016,21.7517575 130.593021,22.0116163 C129.681977,22.4782859 128.820138,23.0764224 128.182792,23.8875202 C128.050556,24.0827988 127.84067,24.1919702 127.631553,24.2857654 C127.719198,23.5215652 127.929084,22.7619779 128.327329,22.099261 C128.631779,21.5880003 129.070771,21.1797606 129.463635,20.7407683 C130.025637,20.1218738 130.665289,19.5744789 131.171168,18.9071491 C131.557113,18.4081894 131.726251,17.7862196 131.853874,17.1788573 C131.936137,16.7936819 131.965352,16.3954368 131.890777,16.0071862 C131.683198,15.9679767 131.511753,16.0925244 131.483307,16.300104 C131.372597,16.8559558 131.281878,17.4256463 131.018175,17.9361382 C130.786762,18.4074206 130.426189,18.79644 130.084836,19.1869971 C129.747327,18.7049513 129.627392,18.0652988 129.838047,17.5056029 C129.919541,17.2219108 130.151722,17.0227882 130.305485,16.7806121 C130.32163,16.6053227 130.215534,16.3892863 130.014874,16.4077378 C129.451334,16.8559558 129.083841,17.583253 129.155341,18.3120878 C129.182249,18.7864455 129.426732,19.2100615 129.681209,19.5990809 C129.061545,20.2010615 128.370382,20.7423059 127.873729,21.4580709 C127.732268,20.8822299 127.849127,20.2264323 128.280431,19.8005099 C128.438038,19.6744246 128.396522,19.4237915 128.252754,19.3038567 C128.069776,19.2308194 127.952917,19.4007271 127.839901,19.512205 C127.462414,19.9250576 127.214088,20.4732213 127.22562,21.0398366 C127.226389,21.4050228 127.363237,21.7486822 127.509312,22.0777342 C127.131825,22.8058002 126.871197,23.5984465 126.808154,24.4180013 C126.459113,24.3772542 126.123142,24.1758251 126.016277,23.8237087 C125.784095,23.098718 125.992444,22.30069 126.35763,21.6571935 C126.439893,21.498818 126.588274,21.3081524 126.465264,21.1313253 C126.405296,20.9568048 126.141593,20.9729498 126.079319,21.1382447 C125.58651,21.9508801 125.167507,22.8949825 125.304356,23.8682999 C125.355866,24.2896095 125.646478,24.616355 125.924019,24.9146545 C125.545763,24.9776972 125.109846,24.9115793 124.872283,24.5786832 C124.377936,23.9151975 124.410226,23.0126109 124.630876,22.2537924 C124.713139,22.0208421 124.478651,21.8632354 124.274915,21.852472 C123.963546,22.6235915 123.839767,23.497732 124.030433,24.3142115 C124.211872,25.0830246 124.948395,25.698075 125.749499,25.6696289 C126.135443,25.6688601 126.488328,25.4958772 126.820455,25.3175126 C126.844288,25.4889579 126.870428,25.6580968 126.898105,25.8280044 C126.215399,26.1286104 125.559602,26.4891837 124.850756,26.7236717 C123.925105,27.0296593 123.014062,27.3787004 122.099174,27.7146717 C121.980008,27.7707951 121.807794,27.8046229 121.785498,27.9614607 C121.757052,28.1997928 121.714768,28.4865601 121.890057,28.6826074 C122.099943,28.9340093 122.342888,29.1930993 122.676553,29.2638301 C123.862062,29.5751994 125.04911,29.8850311 126.237695,30.1833305 C126.345329,30.2171583 126.513699,30.2394539 126.499091,30.3916789 C126.605188,31.398824 126.333028,32.3975122 126.078551,33.3646791 C125.765644,34.3887381 125.685687,35.5265814 126.113147,36.5298825 C125.418909,36.0439926 124.721596,35.5627157 124.02582,35.0775946 C123.665246,34.8146605 123.191657,34.833112 122.769579,34.8823161 C122.014605,34.9891811 121.292689,35.2498087 120.594607,35.5481082 C119.548252,36.005552 118.540338,36.5590974 117.620069,37.2356529 C117.154937,37.593151 116.807434,38.284314 117.118803,38.8432411 C117.400957,39.4536786 117.683112,40.064885 117.953734,40.6807043 C118.252033,40.5261729 118.541876,40.3585716 118.834794,40.1948145 C118.572628,40.0056864 118.285092,39.7619727 118.300469,39.4052434 C118.268179,38.8924451 118.819417,38.4442271 119.311458,38.61721 C119.670494,38.70793 119.861159,39.0661969 119.909594,39.4075499 C120.042599,39.1869005 120.248641,38.9985413 120.516957,38.9770145 C121.074346,38.8862946 121.574844,39.5190278 121.358038,40.040283 C121.258861,40.381636 120.919046,40.5600007 120.586919,40.5992101 C120.8906,40.8652195 121.005922,41.3372707 120.771434,41.6840054 C120.520032,42.1291482 119.818106,42.1775834 119.505199,41.7739565 C119.314533,41.5748339 119.318377,41.2888355 119.31684,41.0328207 C119.01239,41.1758199 118.704864,41.3149751 118.398877,41.4556679 C118.679494,42.0914763 119.017771,42.6988387 119.313764,43.3277278 C120.205587,42.9141063 121.078959,42.4658883 121.969245,42.0507292 C122.913347,44.3064268 123.866675,46.5598179 124.80924,48.8170531 C124.397925,50.1278794 123.985841,51.4379369 123.586827,52.7510697 C124.570139,53.1124118 125.551914,53.4791356 126.53907,53.8335585 C125.957078,54.1287827 125.378931,54.4509154 124.89996,54.900671 C124.062723,55.6402692 123.547618,56.7027689 123.425377,57.8106285 C124.592435,56.8150156 126.010895,56.167675 127.450882,55.6717906 C129.47286,54.9906222 131.597091,54.6569573 133.721321,54.5116516 C137.618435,54.2564057 141.529387,54.5731567 145.391904,55.1013312 C146.475162,55.2566315 147.569951,55.4334585 148.667816,55.3465826 C147.742166,55.1021001 146.796525,54.9437246 145.871643,54.6953979 C145.058239,54.4739798 144.244835,54.2502552 143.422205,54.0642024 C143.695133,53.979633 144.026492,53.9365794 144.18948,53.6698013 M134.142631,22.0246861 C133.96196,22.4936621 133.680574,23.0141486 133.150093,23.1410027 C132.618843,23.2440237 132.121421,22.9203534 131.751622,22.5705434 C132.541193,22.3568134 133.339221,22.1722983 134.142631,22.0246861 M130.841348,22.8772998 C130.889783,23.5177211 130.829047,24.2726956 130.298566,24.7116879 C129.828052,25.0945568 129.165335,24.9915358 128.633316,24.8093271 C129.173023,23.9828531 129.931073,23.2786203 130.841348,22.8772998 M126.561365,52.3558997 C126.053949,52.5165817 125.480414,52.1829168 125.306662,51.6947205 C125.07525,51.1442503 125.365092,50.433867 125.934014,50.2332068 C126.588274,49.948746 127.375538,50.5438073 127.349399,51.2388143 C127.39399,51.7362364 127.041105,52.2267391 126.561365,52.3558997 M129.792687,44.9652996 C129.713499,47.6653711 129.465941,50.3569857 129.217614,53.0462939 C128.797842,53.136245 128.378839,53.2277338 127.962143,53.3330612 C128.336555,52.2905506 128.727112,51.2549594 129.091529,50.2093736 C128.172797,49.689656 127.26406,49.150718 126.34456,48.6317692 C126.214631,48.5541191 126.063943,48.4772378 126.012433,48.324244 C124.377936,44.4624959 122.741902,40.6015166 121.11048,36.7397685 C121.613284,36.5506405 122.118394,36.3622813 122.638881,36.2262013 C122.865681,36.1600834 123.084792,36.2823247 123.269308,36.4014907 C123.586827,36.6152208 123.864369,36.8796925 124.131147,37.1533899 C125.05526,38.1167127 125.844831,39.1953575 126.711284,40.2086531 C127.2187,40.8067897 128.043637,40.9736221 128.79323,40.9513265 C128.24891,40.5269417 127.743031,40.0318261 127.429355,39.4083187 C126.765101,38.1220944 126.712821,36.5883123 127.034185,35.1982983 C127.114142,37.1626157 127.751488,39.0954118 128.860885,40.7183762 C129.153034,41.1758199 129.585107,41.5771404 129.675058,42.1360675 C129.841891,43.0694066 129.79038,44.0211971 129.792687,44.9652996 M135.876304,52.8733109 C134.015008,52.7310805 132.139873,52.6926399 130.282421,52.9009882 C130.799063,50.253196 131.323393,47.6054037 131.916148,44.9729877 C132.087594,44.2556851 132.231362,43.5268503 132.494296,42.8333809 C133.564484,43.0255842 134.660811,43.0032886 135.735612,42.8479884 C136.590532,42.7434298 137.44699,42.5212428 138.314211,42.6165757 C139.003836,42.6834624 139.617349,43.1040031 140.004831,43.6660055 C140.668316,44.6078015 141.00275,45.7294998 141.312582,46.8250584 C141.435592,47.188707 141.178808,47.5169902 140.98968,47.8029887 C140.336189,48.6963495 139.538161,49.4713131 138.751665,50.2462767 C137.823708,51.1542449 136.85731,52.0214661 135.876304,52.8733109 M142.397377,53.8174134 C141.750036,53.7228494 141.114228,53.5698556 140.468425,53.4660658 C139.248319,53.2507982 138.019755,53.0885786 136.789654,52.9501923 L136.74045,53.050138 C136.736606,53.0063156 136.735069,52.9632621 136.737375,52.9209774 C137.163298,52.8863808 137.560774,52.7018656 137.890595,52.4366251 C139.016137,51.5601782 140.060185,50.5830168 141.082707,49.5897103 C142.000669,48.6663658 142.954766,47.764548 143.732805,46.7151182 C143.259985,46.1185192 142.912482,45.4235122 142.651085,44.7115913 C142.588811,44.1957177 142.789472,43.6752313 143.015503,43.2177875 C141.976836,42.7441986 141.234163,41.7977897 140.822848,40.7529727 C140.424603,39.7504405 140.200878,38.6717957 140.191652,37.593151 C140.719058,39.8457733 141.90995,41.9492459 143.624403,43.5091676 C144.525452,44.4794097 145.336549,45.539603 146.023868,46.670527 C146.266813,47.1218203 146.615086,47.6507637 146.354458,48.1704813 C145.876256,49.2891044 145.128201,50.2624217 144.420893,51.2434272 C143.770477,52.1206429 143.084696,52.9701814 142.397377,53.8174134 M225.282346,51.5532589 C225.776693,52.0445304 226.311018,52.4927485 226.833811,52.9509611 C225.911235,52.9578804 224.98866,52.9517299 224.066084,52.9540363 C223.449496,52.9540363 222.8183,52.803349 222.320878,52.4243241 C221.731967,51.9907135 221.336029,51.3641309 220.883967,50.8013597 C219.386319,48.8631819 217.885596,46.9265418 216.391792,44.9868264 C215.997391,44.4909419 215.562243,43.9789124 214.954111,43.7459621 C214.510506,43.5637534 214.02846,43.5137805 213.556409,43.4661141 C213.556409,45.4950118 213.552565,47.5231407 213.557947,49.5505008 C213.577167,50.7106398 213.63329,51.9538105 214.291394,52.9540363 C212.736086,52.9540363 211.180008,52.9555739 209.624699,52.9524987 C210.092137,52.2544164 210.379674,51.4433186 210.466549,50.6060812 C210.557269,49.7726878 210.509603,48.9331439 210.521904,48.0966753 C210.521904,44.4186735 210.522673,40.7406717 210.521904,37.06267 C210.514216,35.8471765 210.479619,34.5440383 209.794607,33.4930708 C212.087207,33.5015278 214.370582,33.2801096 216.660108,33.2101476 C218.108551,33.147105 219.63157,33.1463361 220.965461,33.7936768 C221.831913,34.2072982 222.56613,34.9353642 222.893644,35.8464077 C223.393373,37.2041316 223.113525,38.7825048 222.266293,39.9403373 C221.271448,41.3188192 219.743817,42.2091047 218.176976,42.7941715 C220.009826,45.1221375 221.871891,47.4247327 223.71858,49.7411665 C224.213696,50.3669803 224.724957,50.9804931 225.282346,51.5532589 M215.20782,42.3567168 C216.481743,42.3090504 217.83716,41.9638533 218.748973,41.0182133 C219.647715,40.0894871 219.9168,38.7263815 219.83223,37.4747538 C219.786102,36.7505319 219.593898,35.9878693 219.071874,35.4566194 C218.539856,34.9130686 217.778731,34.6878064 217.049127,34.5671027 C215.830558,34.3741306 214.593538,34.4348669 213.364975,34.4271787 C213.315002,34.9299825 213.298088,35.4350927 213.295782,35.9386652 C213.295782,38.0505948 213.295782,40.1617555 213.295013,42.2729162 C213.927746,42.3544104 214.568936,42.3774748 215.20782,42.3567168 M207.77186,51.4325552 C208.293115,51.9745685 208.874338,52.4543078 209.437878,52.9517299 C208.596796,52.9586492 207.755714,52.9509611 206.913864,52.9555739 C206.354168,52.967875 205.770639,52.9094452 205.269373,52.638823 C204.716596,52.3528245 204.308357,51.8669346 203.935482,51.3810448 C202.303292,49.2645023 200.664183,47.1525728 199.035068,45.0344928 C198.728311,44.6485486 198.407716,44.260298 198.000245,43.9773748 C197.460539,43.610651 196.794746,43.5260815 196.162013,43.4661141 C196.161244,45.0114284 196.162013,46.5582803 196.162013,48.1043634 C196.174314,49.2560454 196.109734,50.4184908 196.335765,51.5563341 C196.434942,52.0522186 196.621763,52.5296515 196.896999,52.9540363 C195.34169,52.9540363 193.785612,52.9548051 192.230303,52.9540363 C192.876106,52.0076274 193.133659,50.8497949 193.124433,49.714258 C193.122895,45.317416 193.129046,40.920574 193.121358,36.5221944 C193.09368,35.4827591 192.987584,34.3818188 192.396367,33.492302 C195.200228,33.5053719 197.992557,33.1686317 200.794881,33.1893897 C202.176438,33.2324432 203.654866,33.5607264 204.667392,34.5632586 C205.566904,35.4227917 205.882886,36.7513007 205.693758,37.955262 C205.532307,39.0546647 204.917257,40.0425895 204.123842,40.8029456 C203.171282,41.7016881 202.002686,42.343647 200.781042,42.7949403 C202.57699,45.0737023 204.403689,47.3301686 206.208863,49.6004737 C206.707822,50.228594 207.216777,50.8521014 207.77186,51.4325552 M196.162013,42.2721474 C197.698871,42.4443615 199.359507,42.4482056 200.751827,41.6809301 C201.801257,41.1173901 202.478582,40.0126058 202.64157,38.8478539 C202.759967,37.9006762 202.772268,36.8812301 202.334813,36.0078584 C201.997305,35.3305341 201.309986,34.903074 200.595758,34.7162525 C199.173454,34.3372276 197.688107,34.4433238 196.232744,34.4279475 C196.135874,35.4120283 196.165857,36.4014907 196.162013,37.3878779 L196.162013,42.2721474 M250.021214,23.1879003 C251.112159,24.2065777 251.433523,25.825698 251.171358,27.2526151 C250.954553,28.5027051 250.174207,29.6428549 249.072498,30.2771257 C247.658651,31.1012934 245.927284,31.2020079 244.347373,30.9083213 C243.053461,30.6676828 241.804908,29.8942568 241.248287,28.6672311 C240.544055,27.1080782 240.714731,25.142992 241.776462,23.7821928 C242.698269,22.5859197 244.223594,22.0100787 245.698178,21.9416543 C247.210433,21.8540096 248.8703,22.1223254 250.021214,23.1879003 M249.470743,27.2495398 C249.554544,26.2677655 249.437684,25.249857 249.014068,24.353421 C248.720382,23.7306824 248.238336,23.1863627 247.62021,22.876531 C246.942117,22.5390221 246.155621,22.473673 245.414486,22.5759251 C244.629527,22.6797149 243.879166,23.0702719 243.389432,23.699161 C242.795908,24.4433721 242.565264,25.4197647 242.59371,26.3584855 C242.589866,27.6816128 243.014251,29.1546586 244.162858,29.930391 C244.784059,30.3486253 245.555178,30.4862429 246.294777,30.4424205 C247.08281,30.4093616 247.880069,30.1233631 248.444378,29.5598231 C249.065579,28.9539984 249.386174,28.0998471 249.470743,27.2495398 M205.358555,28.3989154 C206.133519,29.2469162 206.853897,30.164879 207.807225,30.8260583 C207.277513,30.8337464 206.747801,30.8429722 206.218088,30.8268271 C205.787553,30.8037627 205.411603,30.551592 205.14175,30.2302281 C204.368324,29.3376361 203.596436,28.4435065 202.822241,27.5501457 C202.574683,27.2649161 202.338658,26.944321 201.991923,26.7774886 C201.738215,26.6498656 201.451447,26.6298765 201.175443,26.6068121 C201.172368,27.4878719 201.174675,28.3720069 201.173137,29.2546043 C201.176981,29.7958487 201.220803,30.3678457 201.529097,30.8329776 C200.757978,30.8345152 199.987627,30.8329776 199.217276,30.8337464 C199.666263,30.2456044 199.675489,29.4829418 199.653962,28.7764026 C199.651656,27.0573366 199.657038,25.3359641 199.651656,23.6153604 C199.656269,23.1056373 199.587844,22.5790004 199.301846,22.1430834 C200.708774,22.1453898 202.111858,22.0031594 203.519554,22.0123851 C204.258384,22.0354495 205.07025,22.2015131 205.584586,22.7765853 C206.094309,23.3478134 206.075089,24.2511688 205.648398,24.8623752 C205.146363,25.5950541 204.316814,26.0179013 203.497259,26.3000557 C204.100777,27.0135142 204.741198,27.696989 205.358555,28.3989154 M201.174675,26.0694118 C202.010374,26.1332232 202.924493,26.1570564 203.661016,25.6903869 C204.40984,25.2260238 204.627414,24.1819756 204.31912,23.3916358 C204.141524,22.9372673 203.647946,22.7281501 203.198959,22.6512688 C202.544699,22.5520919 201.878907,22.5490167 201.217728,22.5513231 C201.123933,23.7214566 201.195432,24.896203 201.174675,26.0694118 M239.731419,33.4938397 C240.644769,34.2749537 241.403588,35.2152121 242.106283,36.1862231 C243.057305,37.5039687 243.873015,38.9132031 244.620302,40.3531899 C245.389884,41.8423809 246.155621,43.3738565 246.429319,45.0437185 C246.555404,45.7356503 246.5062,46.4406519 246.515426,47.1371966 C246.512351,48.1028258 246.523883,49.0676862 246.509275,50.0325466 C246.483905,51.0381541 246.347825,52.0868152 245.796586,52.9532675 C247.292696,52.9555739 248.790344,52.9540363 250.287223,52.9540363 C249.98431,52.4881356 249.792876,51.9584234 249.699081,51.4125661 C249.507646,50.3208515 249.559926,49.2053037 249.552238,48.1012882 C249.540705,47.1026 249.582221,46.0962237 249.779806,45.1152182 C250.012757,43.9020311 250.534781,42.763419 251.197498,41.7285965 C252.016283,40.4469851 252.955773,39.2476367 253.822994,37.9983155 C254.887032,36.4968235 255.957988,34.9991757 257.018181,33.4938397 C255.607409,33.4861515 254.196637,33.4938397 252.785865,33.4892268 C253.238696,33.9497458 253.377083,34.631683 253.214094,35.2467335 C252.888117,36.5583286 252.157745,37.7161611 251.449668,38.851698 C250.644721,40.1640619 249.815172,41.4610496 249.03252,42.788021 C248.930268,42.9287138 248.801107,43.1801156 248.590452,43.0624872 C248.357502,42.8218487 248.305223,42.4697324 248.17068,42.1737393 C247.584076,40.7844941 246.994396,39.3967865 246.367045,38.0259928 C245.770446,36.7443814 245.171541,35.4589259 244.435018,34.2503517 C244.158245,33.7629242 243.608544,33.5099847 243.061918,33.504603 C241.95252,33.4746193 240.840817,33.4953773 239.731419,33.4938397 M227.247432,33.4907644 C227.965504,34.5932424 227.977036,35.9632673 227.980111,37.2325777 C227.979343,40.9628587 227.980111,44.692371 227.980111,48.4234208 C227.983187,49.9548965 228.011633,51.6163016 227.148256,52.9540363 C230.52027,52.9532675 233.889977,52.9563428 237.261223,52.9524987 C238.206863,52.9255902 239.150197,52.8679293 240.095068,52.7964296 C240.289578,51.8607841 240.493313,50.9266762 240.697817,49.9925683 C239.486937,50.9474342 237.978525,51.4517756 236.459351,51.6316778 C235.797403,51.7293171 235.127767,51.7039462 234.460437,51.7293171 C233.311061,51.7346988 232.161686,51.7154784 231.01231,51.7139408 C231.013079,48.9869608 231.01231,46.2599808 231.013079,43.5337697 C232.943569,43.5260815 234.909424,43.5845113 236.792247,43.0855516 C237.594119,42.8572141 238.427512,42.4989473 238.918015,41.7893328 C236.288674,41.9938371 233.650877,42.0099821 231.015385,41.9992188 C231.010773,39.5705382 231.010773,37.1418577 231.014617,34.7124084 C232.335437,34.7270158 233.657027,34.6816559 234.97631,34.7408545 C236.405534,34.7862144 237.921633,34.9768801 239.110987,35.8379507 C239.077159,35.055299 239.020267,34.2741849 238.983364,33.4915332 C235.070874,33.4892268 231.159153,33.4907644 227.247432,33.4907644 M171.932869,33.4907644 C172.627107,34.5732532 172.659397,35.9071439 172.666317,37.1503147 L172.666317,48.188164 C172.67708,49.4513239 173.02689,50.7729136 173.914869,51.7093279 C174.845902,52.7018656 176.202088,53.1516213 177.519834,53.3322924 C179.042084,53.5175763 180.609693,53.4868238 182.097347,53.0855034 C183.479673,52.7110914 184.753596,51.980719 185.825321,51.0373853 C185.876063,51.0327724 185.977546,51.0258531 186.028288,51.0197026 C186.040589,51.725473 185.939106,52.4258617 185.914504,53.1308633 C187.246088,53.0816593 188.576903,53.0078532 189.909256,52.9524987 C189.253459,51.9753373 189.211174,50.7598438 189.17504,49.6235381 C189.170427,45.9739824 189.173502,42.3251955 189.172734,38.6756398 C189.178884,37.53549 189.134293,36.3899585 189.291131,35.256728 C189.378007,34.6339895 189.574823,34.0243207 189.913869,33.4915332 C188.414684,33.4899956 186.91473,33.4892268 185.415544,33.492302 C185.953713,34.3310771 186.09825,35.3482168 186.12439,36.3269159 C186.178975,37.136476 186.145916,37.9475738 186.155142,38.7586716 C186.148223,40.7714243 186.194352,42.7864833 186.051352,44.7953919 C185.998304,46.0623959 186.00753,47.3501578 185.663871,48.5825651 C185.427845,49.4574744 184.972708,50.314701 184.218502,50.8474885 C183.288238,51.5171247 182.101191,51.6716561 180.985643,51.6670432 C179.750929,51.6532046 178.449329,51.42948 177.44449,50.6637422 C176.603409,50.0271649 176.099067,49.0400089 175.886875,48.0213316 C175.636242,46.9649824 175.709279,45.8748055 175.700053,44.799236 C175.699284,42.3028999 175.700053,39.8073327 175.699284,37.3117654 C175.706204,36.0163154 175.709279,34.6201508 176.435038,33.4907644 C174.934315,33.4899956 173.432823,33.4899956 171.932869,33.4907644 M159.455033,34.2219056 C158.498629,34.8423378 157.743655,35.7987413 157.451506,36.9089074 C157.150131,38.0452131 157.201642,39.3222116 157.805929,40.3539588 C158.359474,41.311131 159.269749,41.9946059 160.204626,42.5519954 C161.707655,43.4476626 163.366754,44.058869 164.822886,45.0367992 C165.670887,45.6103338 166.457382,46.3799157 166.747994,47.3901361 C167.050137,48.5087591 166.86716,49.7926769 166.127562,50.7067957 C165.363361,51.6562798 164.136336,52.1075731 162.950057,52.1921426 C161.613091,52.2828625 160.223846,52.0868152 159.024497,51.4671518 C157.970455,50.9412837 157.154744,50.064068 156.444361,49.1445675 C156.434366,50.2232123 156.438979,51.3010882 156.442054,52.3789641 C158.107303,52.9555739 159.852509,53.2930829 161.609247,53.4230123 C163.249125,53.5160387 164.916681,53.2238897 166.411254,52.5388773 C167.549866,52.0153155 168.600064,51.2311262 169.283539,50.1670889 C170.084642,48.9331439 170.291453,47.3170988 169.777886,45.9332353 C169.405012,44.9253213 168.620054,44.1334439 167.753601,43.5291568 C166.333603,42.5389255 164.702182,41.9254127 163.192233,41.0958634 C162.390361,40.649183 161.595408,40.1356158 161.036481,39.3929424 C160.049325,38.0959547 160.294577,35.9986327 161.632311,35.0330034 C162.607935,34.3187761 163.868789,34.1926907 165.041997,34.2395883 C165.826187,34.2672656 166.628059,34.3464534 167.349205,34.6778118 C168.054207,34.9899499 168.640043,35.5027482 169.200507,36.0216971 C169.211271,35.0775946 169.206658,34.134261 169.203583,33.1901585 C167.464527,33.1870832 165.73316,33.0041057 163.994874,33.0033369 C162.415732,33.0179444 160.792768,33.3469964 159.455033,34.2219056 M252.674387,22.1415457 C252.978069,22.6020648 253.000364,23.1656048 253.004208,23.7006987 C253.005746,25.3928562 253.004977,27.0857826 253.004208,28.778709 C252.98345,29.4714096 253.048031,30.2256153 252.645941,30.8329776 C253.386308,30.835284 254.126675,30.8322088 254.866274,30.8345152 C254.611028,30.4385765 254.524152,29.9649876 254.524152,29.5013933 C254.519539,28.6280217 254.523383,27.7523436 254.522614,26.8782031 C255.348319,26.8720526 256.180175,26.8905041 257.000499,26.7598059 C257.533286,26.669086 258.106052,26.5214738 258.477389,26.0963202 C257.161181,26.1893466 255.84036,26.1847337 254.522614,26.1831961 C254.522614,25.0199819 254.521845,23.8583053 254.522614,22.69586 C255.429814,22.7104674 256.340088,22.6543441 257.243444,22.7381447 C257.770081,22.7804294 258.281341,22.9895466 258.642683,23.38241 C258.659597,22.991853 258.655753,22.5997583 258.65114,22.2076637 C258.079912,22.0892664 257.494845,22.1630725 256.917467,22.1423145 C255.502851,22.1415457 254.089004,22.1438522 252.674387,22.1415457 M216.045826,22.1415457 C216.299534,22.5321028 216.395636,22.9987723 216.394867,23.460829 C216.39948,25.3390393 216.394098,27.2187873 216.397174,29.0962288 C216.407168,29.6897525 216.393329,30.3232545 216.051976,30.8345152 C216.792343,30.8322088 217.534248,30.835284 218.274615,30.8329776 C217.890977,30.2494485 217.923267,29.5290706 217.929418,28.8594344 C217.930187,27.3025879 217.929418,25.7449726 217.929418,24.1865885 C217.924805,23.4969632 217.880983,22.7496769 218.275384,22.1430834 C217.531173,22.1415457 216.788499,22.1438522 216.045826,22.1415457 M191.524533,22.1430834 C191.913552,22.7496769 191.875112,23.4938879 191.8828,24.1835133 C191.882031,25.768037 191.883568,27.3525608 191.8828,28.9363157 C191.876649,29.5859628 191.846665,30.2755881 191.473022,30.8337464 L195.318625,30.8337464 C196.190459,30.8306711 197.066137,30.8575796 197.934127,30.7599403 C198.035611,30.3470877 198.135556,29.9334663 198.233965,29.5198448 C197.851096,29.7643274 197.438243,29.9672941 196.996944,30.0810784 C195.825273,30.4024423 194.600554,30.2440668 193.403512,30.2817386 C193.402743,29.0647075 193.402743,27.8499828 193.403512,26.6337206 C194.366066,26.62757 195.344765,26.6544785 196.288099,26.4299851 C196.689419,26.3369587 197.080745,26.1624381 197.36213,25.8510688 C196.043616,25.9425576 194.722795,25.94102 193.403512,25.9379447 C193.402743,24.8569935 193.402743,23.7752735 193.403512,22.6950911 C194.030095,22.6981664 194.657446,22.6881718 195.284798,22.699704 C196.026702,22.7158491 196.796284,22.8004185 197.445931,23.1879003 C197.426711,22.8388592 197.397496,22.4905869 197.376738,22.1430834 C195.42549,22.1423145 193.47578,22.1423145 191.524533,22.1430834 M181.210136,22.1469274 C182.827719,24.8846708 183.789504,27.9360899 184.895826,30.8998643 C185.324824,30.8983267 185.754591,30.8983267 186.184357,30.8998643 C187.565914,27.8930364 188.932095,24.846999 190.869504,22.1461586 C190.176035,22.1392393 189.481796,22.144621 188.787558,22.1430834 C188.964385,22.7727413 188.732972,23.4093185 188.529237,24.0020734 C187.939557,25.6250378 187.139992,27.1603575 186.432684,28.7318114 C186.307367,28.9855198 186.248937,29.305346 185.983697,29.4537269 C185.889902,29.2899697 185.801488,29.1231373 185.743827,28.9447727 C185.024218,26.7590371 184.041675,24.6763225 183.171379,22.5497855 C183.098341,22.3698832 182.980713,22.1523091 182.758526,22.1492339 C182.242652,22.1315512 181.72601,22.1469274 181.210136,22.1469274 M178.497764,22.1423145 C178.77915,22.5813068 178.850649,23.1094814 178.84988,23.6207421 C178.84988,25.5527694 178.850649,27.483259 178.84988,29.4152863 C178.849112,29.9080955 178.769924,30.4139745 178.498533,30.8337464 C179.2389,30.8337464 179.979267,30.8329776 180.721171,30.8337464 C180.434404,30.3909101 180.367517,29.8542785 180.37213,29.3376361 C180.371361,27.4309797 180.370593,25.5258609 180.37213,23.6192045 C180.368286,23.1087126 180.439017,22.5797692 180.724247,22.1423145 C179.982342,22.1430834 179.240437,22.1423145 178.497764,22.1423145 M167.548328,22.1430834 C168.011154,22.5843821 168.073427,23.2547871 168.070352,23.859843 C168.062664,25.2821472 168.089572,26.705989 168.051901,28.129062 C168.005772,29.0501001 167.898138,29.9926649 167.488361,30.8329776 C168.128782,30.8345152 168.769203,30.8345152 169.409625,30.8322088 C169.008304,29.9942025 168.925272,29.0516377 168.923735,28.1336749 C168.922966,26.9520092 168.926041,25.7695746 168.924503,24.5871401 C168.924503,24.2580881 168.90759,23.9274985 168.962944,23.6030594 C169.230491,23.8037196 169.432689,24.073573 169.650263,24.3234372 C171.553075,26.5137857 173.449737,28.7072094 175.353318,30.8967891 C175.750795,30.8998643 176.147502,30.8998643 176.54421,30.8975579 C176.481167,28.6879891 176.531909,26.4761139 176.513457,24.2657763 C176.493468,23.5315598 176.625704,22.778123 177.013186,22.1438522 C176.43427,22.1415457 175.855353,22.1423145 175.276437,22.1430834 C175.567048,22.638199 175.673145,23.21404 175.660075,23.7821928 C175.65008,25.5066406 175.68237,27.2318571 175.643161,28.9563049 C175.379458,28.9132513 175.244916,28.6641559 175.078083,28.4842536 C173.979449,27.2226314 172.873127,25.9671596 171.776031,24.7039997 C171.18712,23.9966917 170.64357,23.2532494 170.063884,22.5397909 C169.911659,22.358351 169.737139,22.1469274 169.476511,22.1500027 C168.834552,22.1307823 168.191056,22.1492339 167.548328,22.1430834 M156.807241,22.1415457 C157.10554,22.6036024 157.159357,23.1609919 157.160895,23.6976234 C157.159357,25.2314055 157.161663,26.7644188 157.160126,28.2966632 C157.144749,28.8617409 157.180884,29.4652591 157.505323,29.9480737 C157.930476,30.6077154 158.730042,30.8891009 159.474253,30.9905843 C161.031868,31.2135401 162.70865,30.913703 163.968734,29.9319287 C163.973347,30.2609807 163.944901,30.5877262 163.925681,30.913703 C164.588398,30.901402 165.249577,30.8714182 165.911525,30.8329776 C165.594774,30.3739962 165.554027,29.8035369 165.554796,29.2645989 C165.553258,27.4102218 165.550952,25.5558446 165.555565,23.7014675 C165.554796,23.1632983 165.611688,22.60514 165.909987,22.1423145 C165.167314,22.1430834 164.425409,22.1423145 163.683505,22.1423145 C163.991799,22.6328173 164.043309,23.2217281 164.037159,23.7860369 C164.026395,24.9923046 164.072524,26.2008788 163.97796,27.4071465 C163.963353,28.1444383 163.89416,28.9539984 163.395969,29.539834 C162.873945,30.1448899 162.018256,30.2755881 161.260975,30.2602118 C160.495237,30.2494485 159.63801,30.0687774 159.14597,29.4291249 C158.695445,28.8594344 158.665462,28.0998471 158.688526,27.4063777 C158.691601,26.0909385 158.683144,24.7762682 158.69237,23.4615978 C158.689295,23.0003099 158.787703,22.535178 159.037567,22.1415457 C158.294894,22.1430834 157.550683,22.1430834 156.807241,22.1415457 M229.446238,22.1461586 C226.143417,22.1392393 222.839827,22.144621 219.537006,22.1438522 C219.423222,22.4698289 219.315588,22.7965745 219.200266,23.1217824 C219.509329,22.9595628 219.847607,22.8403968 220.201261,22.8388592 C221.012358,22.8257894 221.824225,22.8365528 222.635323,22.8350151 L222.635323,28.9301652 C222.638398,29.5775058 222.641473,30.2686688 222.279362,30.8329776 C223.020498,30.835284 223.761634,30.83144 224.503539,30.835284 C224.245217,30.4416517 224.155266,29.9665252 224.159879,29.5006245 C224.158342,27.2787547 224.15911,25.0561161 224.15911,22.8334775 C224.850273,22.8311711 225.541436,22.8373216 226.233368,22.8319399 C226.843037,22.7996497 227.524974,22.7266125 227.965504,22.2507172 C229.052606,23.16868 229.822187,24.3941681 230.517195,25.6204249 C230.953112,26.3823187 231.295233,27.2326259 231.243723,28.1267556 C231.202976,29.0301109 231.385184,30.0234174 230.885456,30.8337464 C231.625054,30.8329776 232.365421,30.8337464 233.105019,30.8337464 C232.919735,30.52699 232.799801,30.1840994 232.781349,29.8250636 C232.721382,29.0624011 232.716769,28.2874375 232.827478,27.5293878 C232.952794,26.742892 233.37641,26.0494226 233.865375,25.4359098 C234.74336,24.3426576 235.619038,23.2486366 236.484722,22.1461586 C235.785102,22.1384705 235.084713,22.1469274 234.385862,22.1415457 C234.567302,22.354507 234.654947,22.6366614 234.582678,22.9134341 C234.3874,23.6384248 233.899972,24.2319485 233.487119,24.8439237 C233.128853,25.344421 232.795188,25.8641387 232.431539,26.3607919 C232.343894,26.520705 232.170911,26.3692489 232.147078,26.2447011 C231.690403,24.9469447 231.085347,23.68686 230.258105,22.5820756 C230.076665,22.3122222 229.774521,22.1330888 229.446238,22.1461586 M208.79515,22.9326544 C209.322556,22.358351 210.099826,22.0915729 210.852494,21.9824014 C211.602086,21.8601601 212.35783,21.9562618 213.110498,21.9754821 C213.492598,21.9931648 213.876235,21.9908584 214.259104,22.0185356 C214.256029,22.4383076 214.256798,22.8580795 214.256029,23.2763138 C213.870854,22.9718639 213.45877,22.6681827 212.96673,22.5690058 C212.267878,22.43677 211.525205,22.4144744 210.844805,22.6451183 C210.403507,22.7965745 210.003724,23.147922 209.907622,23.616898 C209.784612,24.0597344 209.919154,24.5563876 210.250513,24.8739074 C210.762542,25.3859369 211.460625,25.6388764 212.108734,25.9294878 C212.854483,26.2623838 213.65328,26.5745219 214.212207,27.1964917 C214.620446,27.6331776 214.761908,28.2766741 214.625059,28.8525151 C214.483598,29.5106191 213.981563,30.0272615 213.421867,30.3670769 C212.536194,30.8906386 211.483689,31.0936052 210.463474,31.0497829 C209.581646,30.9890466 208.702892,30.8460474 207.859504,30.5792693 C207.861042,30.0995299 207.859504,29.6197905 207.861042,29.14082 C208.347701,29.7005159 208.955832,30.1864058 209.690817,30.3632328 C210.512678,30.5631242 211.428335,30.5954143 212.204836,30.2117766 C212.717634,29.9642188 213.090508,29.4314313 213.086664,28.8532839 C213.116648,28.3327975 212.816811,27.8499828 212.410109,27.5478393 C211.687425,26.9989068 210.811746,26.7259781 210.008337,26.3277329 C209.457098,26.0563419 208.891251,25.7349781 208.544517,25.2098787 C208.091686,24.5125653 208.233916,23.5277157 208.79515,22.9326544" id="path-1"></path>
        <filter x="-1.4%" y="-2.4%" width="102.8%" height="109.6%" filterUnits="objectBoundingBox" id="filter-2">
            <feOffset dx="0" dy="1" in="SourceAlpha" result="shadowOffsetOuter1"></feOffset>
            <feGaussianBlur stdDeviation="0.5" in="shadowOffsetOuter1" result="shadowBlurOuter1"></feGaussianBlur>
            <feColorMatrix values="0 0 0 0 0   0 0 0 0 0   0 0 0 0 0  0 0 0 0.245187953 0" type="matrix" in="shadowBlurOuter1"></feColorMatrix>
        </filter>
    </defs>
    <g id="Homepage" stroke="none" stroke-width="1" fill="none" fill-rule="evenodd">
        <g id="iPhone-7" transform="translate(-116.000000, -16.000000)">
            <g id="UoS-Logo">
                <use fill="black" fill-opacity="1" filter="url(#filter-2)" xlink:href="#path-1"></use>
                <use fill="#FFFFFF" fill-rule="evenodd" xlink:href="#path-1"></use>
            </g>
        </g>
    </g>
</svg>